# AST/ASF file generated using VICON BodyLanguage
# -----------------------------------------------
:version 1.10
:name VICON
:units
  mass 1.0
  length 0.45
  angle deg
:documentation
   .ast/.asf automatically generated from VICON data using
   VICON BodyBuilder and BodyLanguage model FoxedUp or BRILLIANT.MOD
:root
   order TX TY TZ RX RY RZ
   axis XYZ
   position 0 0 0  
   orientation 0 0 0 
:bonedata
  begin
     id 1 
     name lhipjoint
     direction 0.610259 -0.730986 0.305356 
     length 2.50941 
     axis 0 0 0  XYZ
  end
  begin
     id 2 
     name lfemur
     direction 0.34202 -0.939693 0  
     length 7.48822  
     axis 0 0 20  XYZ
    dof rx ry rz
    limits (-160.0 20.0)
           (-70.0 70.0)
           (-60.0 70.0)
  end
  begin
     id 3 
     name ltibia
     direction 0.34202 -0.939693 0   
     length 7.60141   
     axis 0 0 20   XYZ
    dof rx
    limits (-10.0 170.0)
  end
  begin
     id 4 
     name lfoot
     direction 0.0673488 -0.185039 0.980421   
     length 2.04049   
     axis -90 7.62852e-016 20   XYZ
    dof rx rz
    limits (-45.0 90.0)
           (-70.0 20.0)
  end
  begin
     id 5 
     name ltoes
     direction 1.5356e-011 -4.21729e-011 1   
     length 1.02897   
     axis -90 7.62852e-016 20   XYZ
    dof rx
    limits (-90.0 20.0)
  end
  begin
     id 6 
     name rhipjoint
     direction -0.57612 -0.754205 0.315056   
     length 2.43216  
     axis 0 0 0  XYZ 
  end
  begin
     id 7 
     name rfemur
     direction -0.34202 -0.939693 0   
     length 7.42799   
     axis 0 0 -20   XYZ
    dof rx ry rz
    limits (-160.0 20.0)
           (-70.0 70.0)
           (-70.0 60.0)
  end
  begin
     id 8 
     name rtibia
     direction -0.34202 -0.939693 0   
     length 7.69484   
     axis 0 0 -20   XYZ
    dof rx
    limits (-10.0 170.0)
 end
 begin
     id 9 
     name rfoot
     direction -0.111837 -0.30727 0.945028   
     length 2.15769  
     axis -90 -7.62852e-016 -20   XYZ
    dof rx rz
    limits (-45.0 90.0)
           (-20.0 70.0)
  end
  begin
     id 10 
     name rtoes
     direction -1.53539e-011 -4.21878e-011 1   
     length 1.07391   
     axis -90 -7.62852e-016 -20   XYZ
    dof rx
    limits (-90.0 20.0)
  end
  begin
     id 11 
     name lowerback
     direction 0.00552624 0.990109 -0.140195   
     length 2.12403   
     axis 0 0 0   XYZ
    dof rx ry rz
    limits (-20.0 45.0)
           (-30.0 30.0)
           (-30.0 30.0)
  end
  begin
     id 12 
     name upperback
     direction 0.00361898 0.999976 -0.00584723   
     length 2.13232   
     axis 0 0 0   XYZ
    dof rx ry rz
    limits (-20.0 45.0)
           (-30.0 30.0)
           (-30.0 30.0)
  end
  begin
     id 13 
     name thorax
     direction -0.000331275 0.998253 0.0590847   
     length 2.17688   
     axis 0 0 0   XYZ
    dof rx ry rz
    limits (-20.0 45.0)
           (-30.0 30.0)
           (-30.0 30.0)
  end
  begin
     id 14 
     name lowerneck
     direction -0.0561561 0.979832 0.19177   
     length 1.64159   
     axis 0 0 0   XYZ
    dof rx ry rz
    limits (-20.0 45.0)
           (-30.0 30.0)
           (-30.0 30.0)
  end
  begin
     id 15 
     name upperneck
     direction 0.0827153 0.979385 -0.184293   
     length 1.68939   
     axis 0 0 0   XYZ
    dof rx ry rz
    limits (-20.0 45.0)
           (-30.0 30.0)
           (-30.0 30.0)
  end
  begin
     id 16
     name head
     direction 0.0278583 0.995936 -0.0856488  
     length 1.70207  
     axis 0 0 0   XYZ
    dof rx ry rz
    limits (-20.0 45.0)
           (-30.0 30.0)
           (-30.0 30.0)
  end
  begin
     id 17 
     name lclavicle
     direction 0.950993 0.301131 -0.0702275  
     length 3.41652  
     axis 0 0 0   XYZ
    dof ry rz
    limits (-20.0 10.0)
           (0.0 20.0)
  end
  begin
     id 18 
     name lhumerus
     direction 1 -4.48981e-011 -3.9662e-029   
     length 5.32955   
     axis 180 -30 -90   XYZ
    dof rx ry rz
    limits (-60.0 90.0)
           (-90.0 90.0)
           (-90.0 90.0)
  end
  begin
     id 19
     name lradius
     direction 1 -4.48925e-011 -9.0549e-027   
     length 3.69232   
     axis 180 -30 -90   XYZ
    dof rx
    limits (-10.0 170.0)
  end
  begin
     id 20
     name lwrist
     direction 1 -4.49007e-011 -1.49005e-026   
     length 1.84616   
     axis 9.0955e-015 90 90   XYZ
    dof ry
    limits (-180.0 0.0)
 end
  begin
     id 21 
     name lhand
     direction 1 -4.49016e-011 -2.98023e-026   
     length 0.536598   
     axis 1.90115e-014 90 90   XYZ
    dof rx rz
    limits (-90.0 90.0)
           (-45.0 45.0)
  end
  begin
     id 22 
     name lfingers
     direction 1 -4.48924e-011 -5.9578e-026   
     length 0.432619   
     axis 3.80223e-014 90 90   XYZ
    dof rx
    limits (0.0 90.0)
  end
  begin
     id 23
     name lthumb
     direction 0.707107 -6.34947e-011 0.707107   
     length 0.621157   
     axis -90 45 -3.84942e-014   XYZ
    dof rx rz
    limits (-45.0 45.0)
           (-45.0 45.0)
  end
  begin
     id 24 
     name rclavicle
     direction -0.955495 0.276497 -0.102848   
     length 3.36357  
     axis 0 0 0   XYZ 
    dof ry rz
    limits (-10.0 20.0)
           (-20.0 0.0)
  end
  begin
     id 25 
     name rhumerus
     direction -1 -4.48961e-011 3.30983e-027  
     length 5.23431   
     axis 180 30 90   XYZ
    dof rx ry rz
    limits (-90.0 60.0)
           (-90.0 90.0)
           (-90.0 90.0)
  end
  begin
     id 26 
     name rradius
     direction -1 -4.48965e-011 -6.63263e-027   
     length 3.55301   
     axis 180 30 90   XYZ
    dof rx
    limits (-10.0 170.0)
  end
  begin
     id 27 
     name rwrist
     direction -1 -4.48942e-011 -1.48958e-026   
     length 1.77651   
     axis 9.0955e-015 -90 -90   XYZ
    dof ry
    limits (-180.0 0.0)
  end
  begin
     id 28
     name rhand
     direction -1 -4.48977e-011 -2.97966e-026   
     length 0.772522   
     axis 1.90115e-014 -90 -90   XYZ
    dof rx rz
    limits (-90.0 90.0)
           (-45.0 45.0)
  end
  begin
     id 29
     name rfingers
     direction -1 -4.49135e-011 -5.96389e-026   
     length 0.622827   
     axis 3.80223e-014 -90 -90   XYZ
    dof rx
    limits (0.0 90.0)
  end
  begin
     id 30
     name rthumb
     direction -0.707107 -6.34969e-011 0.707107   
     length 0.894259   
     axis -90 -45 3.84942e-014   XYZ
    dof rx rz
    limits (-45.0 45.0)
           (-45.0 45.0)
  end
:hierarchy
  begin
    root lhipjoint rhipjoint lowerback
    lhipjoint lfemur
    lfemur ltibia
    ltibia lfoot
    lfoot ltoes
    rhipjoint rfemur
    rfemur rtibia
    rtibia rfoot
    rfoot rtoes
    lowerback upperback
    upperback thorax
    thorax lowerneck lclavicle rclavicle
    lowerneck upperneck
    upperneck head
    lclavicle lhumerus
    lhumerus lradius
    lradius lwrist
    lwrist lhand lthumb
    lhand lfingers
    rclavicle rhumerus
    rhumerus rradius
    rradius rwrist
    rwrist rhand rthumb
    rhand rfingers
  end

#!OML:ASF F:\VICON\USERDATA\INSTALL\rory3\rory3.ASF
:FULLY-SPECIFIED
:DEGREES
33
root -12.7148 18.0304 -8.49129 -2.88351 -3.7402 -1.9737
lowerback 11.8218 1.43442 0.801144
upperback 0.591717 2.11346 1.62009
thorax -6.0453 1.03619 0.894151
lowerneck -23.1115 -5.65093 -12.2235
upperneck 29.5642 -6.27007 8.29431
head 14.8197 -2.91936 4.29082
rclavicle -6.98231e-015 1.03368e-014
rhumerus -33.3484 -20.6351 -76.354
rradius 23.4196
rwrist 13.0059
rhand -16.9188 10.1656
rfingers 7.12502
rthumb 9.31372 -19.6086
lclavicle -6.98231e-015 1.03368e-014
lhumerus -38.0354 5.47721 83.9308
lradius 31.8596
lwrist -6.35386
lhand -17.3524 26.2715
lfingers 7.12502
lthumb 8.89531 56.064
rfemur -3.03832 -1.18623 25.3287
rtibia 21.3492
rfoot -10.6942 1.04243
rtoes 6.26379
lfemur -14.5255 -0.577726 -19.1458
ltibia 57.4633
lfoot 1.30231 -3.81665
ltoes -6.36884
34
root -12.7215 18.0125 -8.36977 -2.80458 -3.74487 -1.75518
lowerback 11.7105 1.54354 0.69633
upperback 0.583777 2.23314 1.46616
thorax -5.99034 1.09599 0.774146
lowerneck -22.9083 -5.71467 -12.2786
upperneck 29.356 -6.40135 8.42431
head 14.708 -2.96447 4.32199
rclavicle -3.51352e-014 -1.13307e-014
rhumerus -33.0611 -20.4883 -76.5304
rradius 23.6908
rwrist 12.8992
rhand -17.2981 9.81729
rfingers 7.12502
rthumb 8.94772 -19.973
lclavicle -3.51352e-014 -1.13307e-014
lhumerus -38.254 5.68093 83.8051
lradius 31.8799
lwrist -5.65329
lhand -17.4777 25.9446
lfingers 7.12502
lthumb 8.77435 55.7422
rfemur -2.89421 -1.24666 25.1031
rtibia 21.7158
rfoot -11.4019 1.18951
rtoes 5.91506
lfemur -15.3984 -0.495 -19.4579
ltibia 56.8777
lfoot 0.254079 -2.97275
ltoes -5.91319
35
root -12.7302 17.9956 -8.25203 -2.80399 -3.72665 -1.76707
lowerback 11.7649 1.62424 0.781103
upperback 0.548359 2.348 1.38346
thorax -6.05251 1.14849 0.618453
lowerneck -22.6966 -5.77256 -12.2345
upperneck 29.2622 -6.53368 8.4442
head 14.6372 -3.01614 4.29364
rclavicle -2.1183e-014 -1.63003e-014
rhumerus -32.8746 -20.264 -76.717
rradius 23.9091
rwrist 12.576
rhand -17.3647 9.30873
rfingers 7.12502
rthumb 8.88344 -20.4843
lclavicle -2.1183e-014 -1.63003e-014
lhumerus -38.5715 5.69087 83.7089
lradius 32.004
lwrist -5.05812
lhand -17.6981 25.3221
lfingers 7.12502
lthumb 8.56168 55.1285
rfemur -2.69017 -1.28419 25.1496
rtibia 22.1313
rfoot -12.2502 1.16648
rtoes 6.34948
lfemur -16.1483 -0.459703 -19.499
ltibia 56.1511
lfoot -0.84293 -2.08205
ltoes -6.19911
36
root -12.7393 17.9818 -8.13706 -2.79267 -3.78113 -1.94372
lowerback 11.8361 1.69619 0.9864
upperback 0.514506 2.47263 1.37782
thorax -6.12028 1.20323 0.473495
lowerneck -22.551 -5.8052 -12.255
upperneck 29.2196 -6.60162 8.4776
head 14.5985 -3.04536 4.29693
rclavicle -3.16565e-014 1.19271e-015
rhumerus -32.6597 -19.8366 -76.931
rradius 24.1985
rwrist 12.0544
rhand -17.1663 9.1261
rfingers 7.12502
rthumb 9.0749 -20.6587
lclavicle -3.16565e-014 1.19271e-015
lhumerus -38.8747 5.84962 83.5942
lradius 32.1178
lwrist -4.76215
lhand -17.5246 25.3247
lfingers 7.12502
lthumb 8.72913 55.1242
rfemur -2.41605 -0.999605 25.4001
rtibia 22.5302
rfoot -13.0005 0.727434
rtoes 7.46471
lfemur -16.864 -0.330312 -19.3203
ltibia 55.2779
lfoot -1.96314 -1.33076
ltoes -8.3235
37
root -12.7443 17.969 -8.02457 -2.72749 -3.82812 -1.95143
lowerback 11.9006 1.787 1.03934
upperback 0.475336 2.60018 1.34292
thorax -6.19437 1.26311 0.382837
lowerneck -22.5328 -5.80404 -12.3053
upperneck 29.1782 -6.62259 8.60322
head 14.5868 -3.04237 4.35343
rclavicle -4.45402e-014 7.95139e-015
rhumerus -32.3459 -19.5242 -77.0417
rradius 24.3873
rwrist 11.6769
rhand -17.057 8.9648
rfingers 7.12502
rthumb 9.18033 -20.8154
lclavicle -4.45402e-014 7.95139e-015
lhumerus -39.0593 5.986 83.5544
lradius 32.0835
lwrist -4.58993
lhand -17.4376 25.1143
lfingers 7.12502
lthumb 8.81308 54.9103
rfemur -2.17579 -0.868299 25.4263
rtibia 22.8356
rfoot -13.5592 0.268596
rtoes 7.39388
lfemur -17.6045 -0.25702 -19.3647
ltibia 54.278
lfoot -2.82421 -0.42382
ltoes -8.26854
